<svg xmlns="http://www.w3.org/2000/svg" width="36" height="36" viewBox="0 0 36 36"><g transform="translate(-761 -891)"><path d="M0,0H36V36H0Z" transform="translate(761 891)" fill="#5fa75c"/><path d="M12.765,2.447A33.786,33.786,0,0,0,4.571,6.412c-2.027,1.5-3.436,3.965-3.348,5.463.088,1.145.352,1.41,1.322.881a138.76,138.76,0,0,1,14.009-5.9c1.762-.7,2.643-1.85,3.877-4.494.7-1.41.529-2.115-.793-2.643A77.349,77.349,0,0,1,6.686-7.509c-.793-.617-1.41-.441-1.586.7A7.053,7.053,0,0,0,7.391-1.077,26.982,26.982,0,0,0,12.765,2.447Z" transform="translate(767.781 906.882)" fill="#fff"/></g></svg>